<?xml version="1.0" encoding="UTF-8" standalone="no"?>
<svg
   width="102.10483"
   height="322.27295"
   viewBox="-411 0 102.10483 322.27295"
   version="1.2"
   id="svg7379"
   sodipodi:docname="Ideer - page 2.svg"
   xmlns:inkscape="http://www.inkscape.org/namespaces/inkscape"
   xmlns:sodipodi="http://sodipodi.sourceforge.net/DTD/sodipodi-0.dtd"
   xmlns="http://www.w3.org/2000/svg"
   xmlns:svg="http://www.w3.org/2000/svg"><defs
   id="defs7383" />
<sodipodi:namedview
   id="namedview7381"
   pagecolor="#ffffff"
   bordercolor="#000000"
   borderopacity="0.25"
   inkscape:showpageshadow="2"
   inkscape:pageopacity="0.0"
   inkscape:pagecheckerboard="0"
   inkscape:deskcolor="#d1d1d1"
   showgrid="false" />
<title
   id="title4803">Ideer</title>
\n<g
   id="g6173"
   transform="translate(-44.705029,-1473.5968)">
  <path
     fill="none"
     stroke="#beeafe"
     stroke-width="30"
     stroke-linecap="butt"
     stroke-linejoin="bevel"
     opacity="0.500008"
     d="m -351.334,1481.33 1.009,13.96 1.573,10.23 1.192,11.99 -0.042,3.94 -1.019,7.09 0.993,9.26 -0.755,10.47 0.08,2.32 0.946,4.72 0.019,9.9 0.767,13.01 -0.044,2.23 -1.4,6.68 -0.395,3.96 0.184,6.13 1.019,10.56 -0.54,7.8 0.098,13.96 -0.542,8.06 0.145,4.03 1.219,7.23 -0.154,6.25 0.389,3.8 1.498,6.74 0.147,2.17 -0.178,5.1 -0.786,7.32 0.179,4.57 0.804,4.63 -1.041,12.48 0.143,7.57 -1.091,9.15 0.067,3.67 1.722,9.58 -0.795,7.53 0.306,6.05 -1.247,3.75 -1.162,5.62 -0.509,5.61 -1.03,3.7 -0.144,5.15 1.127,5.2 1.05,2.23 0.855,0.86 3.026,1.31 2.036,-0.05 6.576,-1.99 5.875,0.18 4.952,-0.66 1.655,0.31 4.033,1.73 4.915,0.9 1.247,0.49 2.358,-0.03 4.646,1.02 12.145,0.07 1.519,-0.59 2.833,0.13 1.771,-0.45 2.659,-1.33 1.118,-1.04 3.2,-7.19 0.673,-3.58 0.283,-4.25 -0.641,-8.4 0.121,-20.78 -0.866,-18.81 0.406,-16.03 -0.377,-11.9 0.247,-9.02 -0.795,-6.26 -0.587,-9.12 -0.919,-6.49 -1.683,-26.95 0.389,-12.88 -0.423,-7.82 0.418,-11.75 -0.11,-8.37 1.336,-14.36 -1.104,-10.47 -0.481,-11.48 0.044,-13.66 0.39,-4.46 -0.339,-1.57 0.053,-2.64 1.41,-7.61 -0.197,-5.85 0.594,-3.76 -0.719,-3.43 0.673,-6.17 -0.208,-2.55 -3.021,-6.11 -4.566,-1.99 -8.297,0.04 -7.097,1.14 -2.999,0.07 -2.173,-0.13 -8.723,-1.66 -3.98,-1.13 -7.375,0.08 0.588,0.01 3.487,8.02 1.028,7.16 0.652,9.89 -0.016,33.3 -0.467,39.17 -1.742,43.83 0.295,11.53 0.406,2.63 0.651,1.39 0.623,-0.24 0.395,-2.21 0.882,-13.5 -2.32,-38.29 -0.415,-12.17 -0.005,-13.05 1.407,-30.87 1.162,-14.18 0.938,-6.24 0.711,-2.6 1.345,-3.14 0.739,2.02 0.619,6.35 0.18,21.83 -0.438,15.9 0.007,15.76 0.588,9.2 0.575,2.22 0.278,-0.01 0.551,-3.94 1.741,-20.07 2.267,-20.05 1.204,-7.8 1.442,-4.85 0.752,-1.76 2.088,-2.9 0.849,9.13 0.12,13.64 -1.264,29.75 0.123,7.65 0.422,2.39 0.374,0.11 4.862,-37.27 2.973,-15.76 1.182,-4.27 0.773,-1.24 0.108,3.39 -1.251,14.33 -8.105,56.87 -1.714,26.97 -0.53,19.09 -1.73,16.22 -1.204,15.2 0.067,6.12 0.772,2.53 -0.042,2.6 -3.603,23.4 -2.434,11.9 -1.65,18.81 -0.212,11.75 0.806,4.57 0.49,0.18 0.345,-2.03 1.123,-21 -0.069,-25.41 -0.641,-10.4 -0.954,-7.43 -1.563,-6.68 0.247,0.32 -0.841,8.44 -0.609,23.68 0.516,7.6 1.293,9.95 3.942,13.89 0.691,1.3 2.116,-12.46 2.523,-28.01 0.041,-5.31 -0.495,-3.59 3.282,29.5 -0.286,17.49 0.742,2.06 1.224,-8.08 0.937,-12.86 -0.264,-41.17 0.951,-7.52 1.566,-4.33 0.883,3.66 0.991,6.85 1.148,14.99 0.064,37.9 1.04,2.89 0.98,0.76 0.617,-0.52 0.986,-7.82 0.297,-9.89 -0.075,-7.33 -1.361,-27.81 -0.084,-11.88 0.578,-10.76 1.316,-14.68 0.276,36.78 0.403,12.09 -0.089,21.72 -0.638,19.54 0.144,2.05 0.37,0.16 -2.614,-26.38 -3.403,-23.07 -1.136,-20.14 -1.504,-16.47 -1.639,-9.54 -0.65,-1.97 -1.217,-2.09 -1.75,-1.13 -1.439,4.29 -1.633,9.3 -0.525,6.51 -0.601,12.71 -0.16,18.41 -0.439,6.49 -0.304,0.62 -0.497,-0.18 -1.901,-7.07 -1.728,-13.21 -1.389,-21.31 0.221,-28.76 0.663,-25.97 -0.344,-5.58 -0.555,-1.59 -0.48,-0.04 -0.84,3.35 -2.047,15.65 -1.036,18.6 -0.461,15.57 0.611,31.65 1.105,11.55 0.507,2.33 0.227,0.44 0.414,-0.17 0.78,-9.37 0.083,-9.92 -0.529,-26.23 -1.081,-26.94 0.023,-10.82 0.541,-10.17 -0.289,-0.73 -0.315,0.87 -0.648,4.84 -1.145,18.97 -0.553,21.44 -0.038,25.41 0.379,14.4 1.016,9.84 0.47,2.36 0.667,1.15 0.452,0.17 0.429,-0.3 0.365,-1.54 0.894,-16.93 -0.925,-25.2 -1.465,-17.92 -1.08,-18.26 -0.71,-22.42 0.375,-12.65 0.548,-5.18 1.446,-6.73 0.186,-2.33 -0.643,1.57 -1.241,7.14 -2.247,30.93 -1.329,28.05 -0.749,28.22 0.15,11.96 0.598,5.41 0.831,2.62 0.41,0.37 0.439,-0.42 0.602,-7.08 0.559,-11.55 0.638,-48.91 0.713,-7.67 4.974,-31.24 -0.689,5.75 -0.532,17.62 0.212,13.04 0.695,7.29"
     id="path6171" />
</g>
<g
   id="g6177"
   transform="translate(-44.705029,-1473.5968)">
  <path
     fill="none"
     stroke="#beeafe"
     stroke-width="30"
     stroke-linecap="butt"
     stroke-linejoin="bevel"
     opacity="0.500008"
     d="m -306.948,1515.49 2.581,1.54 1.765,0.68 0.505,-0.12 -0.321,-0.28 -0.062,0.38 0.076,5.2 0.896,15.95 0.796,-3.24 1.07,-8.99 0.208,-5.82 -0.758,-5.14 0.004,-2.42 2.252,-8.68 1.178,-3.18 1.719,-1.41 0.985,-1.81 -1.085,-0.02 -3.284,1.24 -1.913,-0.32 -1.192,-0.92 -2.304,-0.14 -5.202,1.75 -0.616,-0.82 0.472,-4.74 -1.111,-0.2 -3.729,0.83 -0.771,-4.34 -0.446,-0.57 -4.278,0.78 -2.209,-1.46 -1.022,-0.1 -1.779,0.5 -3.13,-0.9 -2.838,0.46 -2.709,-0.5 -3.062,0.42 -1.405,-0.55 -1.477,0.5 -2.14,-0.39 3.114,0.79"
     id="path6175" />
</g>
<g
   id="g6185"
   transform="translate(-44.705029,-1473.5968)">
  <path
     fill="none"
     stroke="#beeafe"
     stroke-width="30"
     stroke-linecap="butt"
     stroke-linejoin="bevel"
     opacity="0.500008"
     d="m -296.344,1750.72 -0.509,4.22 0.302,8.84 0.453,1.26 -0.108,-0.72 -2.212,-3.75 -0.82,-5.27 -2.85,-8.11 -0.246,-1.81 0.196,-2.08 0.21,1.43 2.137,5.95 -0.392,3.06 -2.288,-4.41 -1.961,-5.1 -1.493,-2.28 -0.841,-2.22 -0.31,-1.99 -1.582,10.34 -0.441,6.97 -1.381,0.85 -1.499,-0.82 -1.092,-3.07 0.512,-5.58 -0.558,-4.16 0.645,-1.45"
     id="path6183" />
</g>
<g
   id="g7329"
   transform="translate(-44.705029,-1473.5968)">
  <path
     fill="#000000"
     fill-rule="evenodd"
     d="m -284.5,1735 -17.5,-3.37 -29,-2.38 -4.75,-1.5 v -1.5 l 1.75,-0.5 5,-0.37 20,1.62 -0.5,-1 -1.5,-0.37 -8,-3.13 -5.75,-3.75 -0.25,-1.25 -2,-2 v -3 l 2.5,-2.5 17.5,-1 -0.5,-1 -1.5,-0.5 -2,-1 -1.75,-0.75 v -2.5 l 1.75,-0.75 2,-1 2,-0.75 1,-10.25 1,-1 -1,-1 -0.5,-1.5 -1,-2 -0.5,-1.5 2.5,-2.5 h 2 l 2.5,-2.5 v -2 l -1,-1 1,-1 1,-3 -1.5,-1.5 -28.5,-8.5 -3.5,-0.5 -1.5,-1.5 0.25,-2.25 1.75,-0.5 12.75,-1.87 -0.25,-5.88 0.5,-2.5 1,-1 -0.5,-0.5 h -2 l -2.5,-2.5 v -1 l 1.5,-1.5 19.25,-1 0.25,1.5 1,1 -1.5,1.5 h -11.25 v 1.75 l 5.75,1.75 8,3.13 1.5,0.37 1,1 0.5,-0.5 -0.625,-4.5 -1,-3 -0.875,-2 -1.5,-2.5 -3,-4 -2,-3 -0.5,-0.5 -2,2 -7.5,1.38 -8,-0.13 -3,-0.87 -4,-1.88 -1.5,-0.5 -2.5,-2.5 -1,-7 6.5,-6.5 h 1 l 2,-2 2.5,-0.5 4.75,0.25 0.5,-2.62 5.75,-0.13 -0.5,-1 -2,-1 -3,-2 -2,-1 -2.5,-2.5 -0.5,-1.5 -1,-2 v -2 l 0.5,-1.5 1.5,-1.5 h 2 l 2,2 4,2 6.5,6.5 v 1 l 4.5,4.5 7.25,-0.12 -0.375,-2.88 -3.375,-5.5 -6,-6 1,-1 v -1 l 1.5,-1.5 h 1 l 0.5,-0.5 -2,-2 v -1 l -2,-2 v -4 l 1,-1 -1.5,-1.5 -1.5,-0.5 -2,-1 -1.5,-0.5 -1.5,-1.5 v -3 l 1.5,-1.5 3,-1 1.5,-1.5 -4,-4 v -5 l -3.5,-3.5 -1.5,-0.5 -7,-4 -1.5,-0.5 -2.5,-2.5 v -3 l 2.5,-2.5 1.25,-0.25 -0.75,-7.25 -1,-1 1.5,-1.5 1.5,1.5 1.5,5.5 0.5,5.5 -3,3 1.5,1.5 1.5,0.5 4,2 5.5,3.5 1.5,1.5 0.375,1.5 v 3 l 2.625,4.5 3.375,4.5 0.625,3.5 -1.5,1.5 h -2 l -0.5,0.5 4,4 -1,5 5,5 1,2 0.75,2.25 -4.25,1.25 -0.5,0.5 6,6 0.5,1.5 0.875,2 0.875,3.75 1.25,0.25 1.5,1.5 0.375,1.5 0.625,3.5 -1.5,1.5 h -10.375 l -0.875,7 -1.25,2.5 v 3 l 5,7 1.375,2.5 1.125,3 1.5,6.5 -1,1 1.5,1.5 3.25,1.25 0.25,3.25 -1.5,1.5 -5.25,0.13 -0.25,1.37 -6,6 0.5,0.5 1.5,0.5 2,1 1.5,0.5 1.5,1.5 -0.5,3.5 -1,4 -0.5,3.5 -2.5,2.5 -3.25,0.25 0.25,1.75 0.875,2 v 4 l -0.625,2 -0.125,7 -0.625,2.5 -2,2 0.5,0.5 1.5,0.5 2,1 1.75,0.75 0.25,2.25 -2.5,2.5 -20,2 -0.5,0.5 3.5,3.5 1.5,0.5 15,6 14,3.88 5.5,0.62 1.5,1.5 v 2 l -1.5,1.5 m -25,-126 0.5,-0.5 -9.5,-9.5 -2,-1 -2.25,-0.75 -0.25,2.25 3.5,3.5 h 2 l 5,5 3,1 m 1.5,1 v -1 h -1 v 1 h 1 m -0.5,4 0.5,-0.5 -1.5,-1.5 h -4 l -0.5,1 h 0.5 l 5,1 m 8,0 1,-1 h 1 l 0.5,-1 h -5.5 l -0.5,1 h 0.5 l 3,1 m -20.5,15.38 4,-0.88 3,-1 2.5,-0.5 0.5,-0.5 -3,-3 -2,-4 -4.5,-4.5 -7,1 -7.5,7.5 v 2 l 3.5,3.5 10.5,0.38 m 6,-13.38 v -1 h -1 v 1 h 1 m 6.5,9 3.5,-3.5 v -2 l -1.5,-1.5 -6.5,-1.62 -1.75,-0.13 0.75,2.25 2,3 1,2 1.5,1.5 h 1 m 8,30 1.5,-1.5 -1.5,-1.5 -2.5,-0.5 -11,-4 -2.5,-0.5 -1.5,1.5 v 5 l 1.5,1.5 h 16 m -5.5,5 v -1 h -1 v 1 h 1 m -9.5,3 0.5,-0.5 -2.5,-2.5 h -7 l -0.5,1 h 0.5 l 2.5,0.5 3,1 3.5,0.5 m 6.5,-1.62 1.5,-0.38 0.5,-1 h -6.5 l -0.5,0.5 1.5,1.5 3.5,-0.62 m -5,2.62 v -1 h -1 v 1 h 1"
     id="path7327" />
</g>
<g
   id="g7341"
   transform="translate(-44.705029,-1473.5968)">
  <path
     fill="#000000"
     fill-rule="evenodd"
     d="m -273.25,1787.75 -1.25,0.25 -1.5,-1.5 v -2 l -0.5,-0.5 -1,1 -82,5 -1.5,-1.5 v -1 l 1,-1 -2,-2 v -12 l -1,-1 1,-1 0.75,-30.5 -0.75,-254.5 1.5,-1.5 1.5,0.25 2.5,243.75 -1.75,11 v 18 l -1.5,10 0.75,14.5 1.5,1.5 4.5,1.13 15,0.12 8.75,-1 0.5,1.75 51.25,-2 1.5,-1.5 2,-293.37 -35,-2 -4,-0.63 -11,-2.25 -16,0.13 -13,-1.88 -5,0.25 -4,1.63 -2.75,0.37 -0.25,-1.25 1.5,-1.5 3.5,-1.12 42,2 4,0.62 3,1 4,0.75 24,0.38 8.5,1.37 2,-2 1.5,1.5 -1.75,267.5 -0.375,2 -0.125,11 0.75,4 0.125,14 -0.875,3.75 m -84.25,0.25 0.5,-1 h -1.5 l -0.5,1 h 1.5"
     id="path7339" />
</g>
</svg>
