<?xml version="1.0" encoding="UTF-8" standalone="no"?>
<svg
   width="91.403748"
   height="456.76892"
   viewBox="-411 0 91.403748 456.76892"
   version="1.2"
   id="svg7379"
   sodipodi:docname="Ideer - page 2.svg"
   xmlns:inkscape="http://www.inkscape.org/namespaces/inkscape"
   xmlns:sodipodi="http://sodipodi.sourceforge.net/DTD/sodipodi-0.dtd"
   xmlns="http://www.w3.org/2000/svg"
   xmlns:svg="http://www.w3.org/2000/svg"><defs
   id="defs7383" />
<sodipodi:namedview
   id="namedview7381"
   pagecolor="#ffffff"
   bordercolor="#000000"
   borderopacity="0.25"
   inkscape:showpageshadow="2"
   inkscape:pageopacity="0.0"
   inkscape:pagecheckerboard="0"
   inkscape:deskcolor="#d1d1d1"
   showgrid="false" />
<title
   id="title4803">Ideer</title>
\n<g
   id="g6169"
   transform="translate(-639.75604,-1343.04)">
  <path
     fill="none"
     stroke="#acff85"
     stroke-width="30"
     stroke-linecap="butt"
     stroke-linejoin="bevel"
     opacity="0.500008"
     d="m 246.204,1365.77 0.428,-3.52 0.069,5.01 -1.143,3.17 -0.637,3.27 -0.109,2.56 0.561,3.48 -0.119,3.99 -1.078,5.23 -0.42,10.58 0.05,25.31 0.504,11.02 0.075,22.42 0.7,11.17 -0.137,10.88 -0.961,11.38 0.141,6.2 0.779,9.68 -1.085,15.83 0.575,6.14 2.111,11.34 0.227,6.96 -0.66,9.85 -0.018,7.09 3.255,22.44 0.945,23.79 1.864,8.93 0.217,3.29 -0.439,20.63 0.177,2.39 0.819,3.74 -0.197,12.94 0.666,10.17 -0.579,12.75 0.135,11.13 -1.066,4.54 -0.69,6.17 0.356,9.14 1.11,10.73 -0.881,10.53 0.317,10.5 -0.322,11.74 0.422,1.13 0.194,6.37 0.572,1.62 2.85,5.29 1.965,1.85 4.708,2.4 2.077,1.67 3.26,-0.35 3.531,0.13 7.197,1.25 4.784,2.11 8.191,0.42 2.357,0.56 6.847,-0.08 3.121,-1.06 0.983,-2.61 0.09,-6.12 -0.884,-7.88 -0.456,-8.23 0.079,-9.39 -1.347,-14.31 0.108,-5.45 -0.519,-8.3 0.302,-13.02 -1.469,-13.82 0.071,-5.04 0.452,-2.67 0.093,-3.5 -0.132,-4.09 -1.285,-8.39 0.399,-10.33 -0.669,-4.47 0.237,-17.23 -0.051,-2.99 -0.569,-3.99 0.165,-8.09 1.664,-14.02 0.233,-29.01 -1.021,-23.8 0.752,-14.46 -0.074,-2.62 -0.618,-1.81 -0.052,-1.23 0.771,-11.5 -0.053,-8.56 -0.576,-4.74 1.145,-14.93 -0.232,-5.88 -0.515,-3.86 -0.407,-13.67 -0.956,-4.61 -0.781,-2.09 -0.444,-3.11 2.294,-13.65 -0.17,-4.86 -0.996,-3.67 -0.082,-4.34 0.289,-2.86 1.953,-9.94 0.1,-6.56 0.874,-6.56 0.327,-15.28 2.246,-11.31 -0.216,-1.82 0.348,-3.84 -0.597,-2.86 0.093,-2.26 -0.442,-1.21 0.098,-5.67 -2.401,-3.19 -5.721,-2.81 -7.542,-1.52 -2.665,-1.38 -1.083,-0.22 h -2.584 l -2.619,0.44 -3.842,-0.57 -1.903,0.29 -2.427,0.92 -1.722,0.22 -3.13,0.98 -1.117,0.91 -1.296,4.39 -0.412,12.2 0.805,9.36 -1.045,11.32 -0.496,19.81 -1.013,14.07 -1.608,33 -0.255,15.25 0.114,21.96 0.669,19.81 1.03,11.09 0.568,3.4 0.799,2.39 0.526,0.47 -0.528,-1.36 -0.437,-4.52 -0.432,-12.68 0.199,-18.35 0.592,-16.14 1.354,-23.66 3.705,-34.88 1.041,-14.6 -0.119,-1.42 0.185,7.43 -1.689,41.54 -0.183,18.55 0.402,16.39 0.664,5.73 0.722,3.01 1.606,-24.65 1.659,-42.61 2.255,-29.74 0.006,-11.27 0.17,0.21 1.053,-2.81 0.146,-2.72 -0.26,-1.53 1.102,-2.12 1.839,-5.04 -0.178,0.56 0.746,2.18 0.195,1.74 -0.308,4.3 -2.509,12.31 -1.123,8.64 -2.133,36.31 -4.232,46.69 -1.821,58.01 0.038,19.75 2.017,31.73 0.129,44.53 1.473,17.77 3.248,19.04 1.386,10.52 -0.137,6.7 0.301,-12.07 0.168,-64.86 0.81,-14.54 1.751,-12.57 -0.088,-0.55 -0.141,0.21 -0.341,4.33 -0.404,16.21 -0.138,35.16 -1.025,37.29 0.294,47.18 -1.141,6.5 -0.513,-3.38 -1.616,-20.27 -0.052,-18.75 0.977,-13.99 0.61,-4.32 0.402,-1.77 0.133,0.24 -0.59,5.07 -0.247,8.53 0.6,34.72 2.01,29.5 0.903,-26.76 -0.118,-2.72 -0.181,10.42 -1.194,21.75 0.616,0.97 1.86,0.09 0.862,-0.77 0.727,-1.81 1.773,-18.46 0.606,-2.86 0.262,-0.35 0.087,1.11 -2.464,16.66 -1.335,3.67 -1.205,1.47 -2.898,1 -8.55,0.4 -2.305,0.87 -1.774,1.32 -3.773,-0.49 -2.726,0.68 -1.739,0.05 -0.576,-0.27 -1.074,0.37 -1.546,0.93 -0.648,0.78 0.263,-0.05 -1.309,0.87 -2.106,2.78 -0.824,2.89 0.279,4.19 1.325,3.6 0.298,2.84 -0.007,-14.91 -0.054,-3.63 -0.886,-4.67 -0.377,-6.98 0.135,-5.1 0.694,-5.88 -0.689,-14.89 0.37,-18.9 -1.388,-14.51 0.315,-20.52 -1.135,-13.22 0.872,-14.07 -0.436,-14.91 0.162,-5.45 1.057,-17.6 -0.453,-7.57 0.134,-6.41 0.893,-6.8 0.772,-11.95 -0.164,-3.9 -1.628,-6.67 -0.44,-4.72 2.446,-16.72 0.26,-9.08 -0.267,-6.92 -2.533,-7.67 0.599,-5.83 1.27,-6.44 0.277,-5.58 -1.062,-9.8 0.765,-15.56 0.001,-9.65 2.982,-19.36 1.972,-15.4 2.347,-9.35 2.287,-5.56 1.221,-1.8 1.012,-0.73 0.591,0.59 0.418,2.17 -1.301,21.69 -0.097,10.97 0.304,18.95 1.222,34.94 -0.466,50.07 0.41,5.31 0.702,2.69 1.017,1.03 0.829,-0.11 0.828,-0.67 0.619,-1.87 0.431,-4.36 -0.118,-3.56 -2.701,-26.52 -0.567,-11.08 -0.123,-14.43 0.105,-9.99 0.717,-12.21 1.218,-11.4 1.248,-5.9 0.394,-0.46 -0.471,40.48 1.461,32.49 1.081,13.28 1.894,14.7 1.838,7.72 2.467,5.53 0.398,0.36 0.138,-2.69 0.013,-15.84 0.396,-9.66 0.587,-10.47 1.107,-11.28 1.517,-10.56 1.007,-4.72 3.381,-13.18 1.985,-6.12 0.349,7.3 0.198,54.02 0.672,13.89 0.659,6.48 0.624,1.69 -0.278,-10.76 0.252,-11.45 1.469,-26.71 1.576,-11.93 1.939,-8.84 0.827,-1.53 -6.844,49.64 -1.619,14.91 -0.296,6.01 0.343,4.21 0.535,2.03 0.789,1.35 0.497,0.11"
     id="path6167" />
</g>
<g
   id="g7301"
   transform="translate(-639.75604,-1343.04)">
  <path
     fill="#000000"
     fill-rule="evenodd"
     d="m 302.75,1768.75 -2.25,0.25 -5.5,-5.5 v -2 l -1.5,-1.5 -2.5,0.63 -5,2.62 -6.5,0.75 -1,-1 -1.5,1.5 v 1 l -1.5,1.5 -1.25,0.25 -0.5,1.5 -3.75,-0.37 -2,-0.88 -1.5,-0.5 -1.5,-1.5 v -2 l 0.5,-0.5 1,1 7,1 1.5,-1.5 v -1 l 2.5,-2.5 9.5,-0.75 4,-1.5 4.75,-0.62 1.25,4.37 2.5,2.5 3.25,1.25 v 3.5"
     id="path7299" />
</g>
<g
   id="g7309"
   transform="translate(-639.75604,-1343.04)">
  <path
     fill="#000000"
     fill-rule="evenodd"
     d="m 301,1696.5 -2.5,2.5 -13.5,-1.5 -19.5,-4.5 -2.5,-2.5 0.25,-1.37 4.75,0.62 19,3.63 10,0.62 -0.5,-1 -2,-1 -5.5,-3.5 -9,-4.12 -1.5,-0.38 -1,1 -1.5,-1.5 v -2 l -1,-1 2.5,-2.5 2.25,0.25 v 1.5 l -1.5,0.5 v 1.5 l 3.75,0.88 5,2 10,5.87 1.5,0.5 2.5,2.5 v 3"
     id="path7307" />
</g>
<g
   id="g7317"
   transform="translate(-639.75604,-1343.04)">
  <path
     fill="#000000"
     fill-rule="evenodd"
     d="m 284.5,1648 h -5 l -1.5,-1.5 0.25,-2.37 5.25,-0.13 0.5,-0.5 -3.5,-3.5 h -2 l -2.5,-2.5 0.25,-1.37 5.25,-0.13 0.5,-0.5 -3.5,-3.5 h -1 l -2.5,-2.5 0.25,-1.25 8.25,0.75 2.5,-2.5 -0.5,-2.5 -1.125,-3 -0.125,-1.75 1.25,-0.25 1.5,1.5 0.25,1.5 v 7 l -3.25,5.5 1,1 -1,1 v 1 l -1,1 1,1 2.5,4.5 0.5,1.5 -2.5,2.5"
     id="path7315" />
</g>
<g
   id="g7333"
   transform="translate(-639.75604,-1343.04)">
  <path
     fill="#000000"
     fill-rule="evenodd"
     d="m 286.75,1579.75 -2.25,0.25 -7,-7 -1.5,-0.5 -2,-1 -1.75,-0.75 -0.25,-1.25 -1,-1 0.5,-0.5 1.5,-0.25 10.5,0.25 0.5,-0.5 -1,-1 -0.625,-2.5 -1.375,-2.5 -3.5,-5.5 -4,-7 -0.25,-1.87 5.5,-0.25 -0.375,-2.88 -0.375,-1.5 -4,-4 0.625,-3.5 0.625,-2 v -5 l 0.25,-2 1,-2 0.75,-2 v -7 l -3.875,-10 1.625,-3.5 2.25,-3.25 h 1.5 l 0.25,3.25 -3,3 0.5,1.5 3,8 1.125,4 v 2 l -1.875,6 -1.75,11.5 2,2 v 1 l 2,2 1,7 -2.5,2.5 h -1 l -0.5,0.5 2,2 0.5,1.5 3.5,5.5 1.25,2.5 0.75,5.5 -2.5,2.5 -1.25,0.25 v 1.5 l 4.5,2.5 v 3.5"
     id="path7331" />
</g>
<g
   id="g7357"
   transform="translate(-639.75604,-1343.04)">
  <path
     fill="#000000"
     fill-rule="evenodd"
     d="m 286.75,1396.75 -3.75,-0.37 -1.5,-0.38 -2,-2 -2.5,0.5 h -3 l -2.5,-0.5 -1,1 -1,-1 -3,-1 -3,3 -4.25,-0.12 -0.5,-2.63 -1.25,-0.25 -2,2 -2.5,-2.5 v -3 l -1,-1 0.5,-0.5 h 2 l 1.5,1.5 v 1 l 0.5,0.5 1,-1 h 1 l 1,-1 2.5,2.5 v 1 l 0.5,0.5 1,-1 1.5,-0.37 14,-0.25 2.5,0.62 2.5,1.38 2.75,0.87 v 2.5"
     id="path7355" />
</g>
<g
   id="g7361"
   transform="translate(-639.75604,-1343.04)">
  <path
     fill="#000000"
     fill-rule="evenodd"
     d="m 312,1792.25 -8,0.25 -17,-3.75 -11,-0.25 -16,2.88 h -8 l -8.5,-1.38 -1,1 -2,-2 -1.25,-0.25 v -1.5 l 1.5,-0.5 -2.25,-104.75 2.375,-19 0.375,-39 -4.625,-32 -0.125,-218 -1.125,-9 0.625,-6.5 1.5,-1.5 1,1 1.5,-1.5 0.25,-1.25 1.25,-0.25 1,-1 1.5,1.5 -1.5,1.5 -1.25,0.25 -0.25,1.25 1.5,1.5 62.5,-0.12 2,0.62 2,1 1.5,0.5 1.5,1.5 -1,1 -0.5,22.5 -1.75,9 2.875,318 2.625,16 3.5,58.75 h -1.5 l -4.75,-64.75 -1.875,-10 -5.125,-288 2.25,-30 1.75,-9 0.5,-23.75 -5,-1.37 -62.5,0.12 -3,-3 -0.5,0.5 4.625,253.5 2.875,16 0.125,5 -2,16 0.125,15 -2.125,15 2.25,105 0.375,2.75 7.75,1.63 h 8 l 16,-2.88 11,0.13 17,3.75 7.5,0.62 1.5,-1.5 0.25,-1.25 h 1.5 l -0.25,1.75 -0.75,1.75 -1.75,0.5"
     id="path7359" />
</g>
</svg>
