<?xml version="1.0" encoding="UTF-8" standalone="no"?>
<svg
   width="153.35547"
   height="425.23401"
   viewBox="-411 0 153.35547 425.23401"
   version="1.2"
   id="svg7379"
   sodipodi:docname="Ideer - page 2.svg"
   xmlns:inkscape="http://www.inkscape.org/namespaces/inkscape"
   xmlns:sodipodi="http://sodipodi.sourceforge.net/DTD/sodipodi-0.dtd"
   xmlns="http://www.w3.org/2000/svg"
   xmlns:svg="http://www.w3.org/2000/svg"><defs
   id="defs7383" />
<sodipodi:namedview
   id="namedview7381"
   pagecolor="#ffffff"
   bordercolor="#000000"
   borderopacity="0.25"
   inkscape:showpageshadow="2"
   inkscape:pageopacity="0.0"
   inkscape:pagecheckerboard="0"
   inkscape:deskcolor="#d1d1d1"
   showgrid="false" />
<title
   id="title4803">Ideer</title>
\n<g
   id="g6161"
   transform="translate(-210.51868,-1382.6907)">
  <path
     fill="none"
     stroke="#ffc38c"
     stroke-width="30"
     stroke-linecap="butt"
     stroke-linejoin="bevel"
     opacity="0.500008"
     d="m -184.667,1395.56 -0.831,4.83 0.63,13.35 -0.08,20.75 0.88,12.53 0.101,18.36 1.046,8.39 0.147,4.22 -0.166,9.27 -0.56,8.65 0.169,8.15 1.088,15.65 -0.135,29.3 1.171,6.16 0.942,9.06 -0.537,20.97 0.126,16.15 0.556,13.43 -0.108,21.14 -0.946,10.11 0.19,14.59 0.822,9.21 -0.19,20.15 0.587,4.69 1.314,5.01 -0.454,15.59 0.173,7.11 -0.947,4.93 -0.677,7.05 0.193,6.84 1.927,10.16 -1.541,4.83 -0.05,4.61 2.31,4.21 -0.376,6.37 0.787,4.01 -0.064,4.89 1.222,3.87 0.893,1.48 2.261,0.82 5.016,2.8 3.125,-0.15 4.904,1.7 4.885,-0.02 2.792,1.63 2.267,0.52 2.617,-0.07 4.245,-1.03 3.037,-0.38 9.379,0.31 5.346,-1.79 7.087,0.58 6.757,-2.1 7.704,0.23 4.7005,-1.39 3.5972,-0.37 3.2193,-0.79 5.231,0.06 2.9335,-0.41 3.3879,0.04 2.599,-0.51 4.2173,-2.23 0.8586,-0.92 1.1185,-2.51 2.9046,-10.21 -0.0034,-4.96 0.8896,-10.13 -0.667,-20.33 0.9419,-7.62 0.134,-15.33 -1.2808,-17.02 -0.1532,-13.42 -1.564,-13.08 -0.6136,-9.02 0.1252,-22.74 -1.1348,-11.51 0.0987,-23.43 1.1961,-12.64 1.4107,-9.71 0.1687,-15.84 1.7983,-9.58 0.5877,-4.85 0.0187,-14.94 0.4827,-5.02 1.8819,-12.1 -0.2153,-11.13 2.5256,-17.18 -0.1843,-5.77 -1.2121,-6.66 -0.2267,-4 0.1178,-3.94 1.4158,-8.8 0.2176,-3.11 -0.2371,-5.12 -1.4249,-3.93 -0.1809,-3.9 0.156,-6.98 0.4949,-5.66 -0.1609,-16.67 -2.2876,-4.3 -1.1905,-3.54 -1.5748,-1.8 -6.1116,-3.09 -2.2178,-0.82 -4.7007,-1.23 -3.5521,-0.4 -9.3126,0.02 -9.8056,-0.48 -9.263,0.35 -9.944,2.18 -6.401,0.53 -10.494,0.13 -9.052,1.2 -0.589,-0.02 -1.709,-0.95 -2.849,0.01 -3.345,-0.98 -1.542,0.3 -3.766,1.9 -2.042,0.17 -5.333,-0.39 -0.8,2.82 -0.268,2.79 -0.037,12.57 -0.496,5.63 -0.146,7.62 2.293,24.04 1.698,35.03 -0.076,17.17 -1.954,45.8 0.372,33.7 0.73,9.38 3.35,28.48 2.089,27.2 0.057,9.2 -0.532,4.92 -0.065,4.28 1.996,5.07 -0.07,4.49 0.515,3.37 -0.924,9.8 -0.443,9.11 -2.346,10.04 -1.268,8.18 1.816,14.83 -0.016,4.66 -0.97,5.54 1.243,10.1 1.298,2.01 4.227,9.96 2.93,5.57 1.142,1.28 0.736,-0.3 0.804,-1.15 1.264,-5.68 2.515,-17.69 0.753,-12.59 0.526,-58.7 -0.57,-10.78 -2.071,-20.82 -0.925,-15.1 0.527,-32.09 1.174,-24.17 -0.271,-12.71 -0.64,-5.71 -0.081,-12.54 2.545,-35.72 -0.276,-20.22 0.874,-9.97 2.892,-20.54 -0.292,-3.04 -1.24,-5.44 -0.616,-10.64 -1.536,-6.55 0.158,-5.77 -0.283,-2.77 -1.873,-3.98 -0.25,-2.74 -0.491,-1.6 -2.237,-2.73 -0.793,-0.6 -1.395,-0.3 -1.593,3.07 -4.308,15.32 -1.182,8.77 0.162,5.65 0.866,3.18 0.628,0.49 1.273,0.27 1.818,-0.61 1.73,-2.43 1.452,-3.52 4.905,-14.81 2.495,-4.29 3.013,-6.33 -0.224,0.39 0.406,-0.03 2.64,-1.67 1.93,-0.48 2.873,1.72 2.618,3.71 1.167,2.68 1.352,8.19 1.071,11.39 0.119,4.97 -0.756,15.8 -0.252,17.38 -4.334,44.58 -0.498,21.71 -0.795,7.58 -1.132,6.75 -3.894,15.7 -5.091,27.35 -0.405,5.3 0.044,21.44 -0.396,11.31 0.963,6.33 2.173,6.98 1.228,9.58 0.86,15.47 -0.054,22.26 0.615,9.64 1.058,10.19 0.97,5.34 0.076,5.31 0.822,4.87 0.828,12.72 0.755,2.89 0.335,4.89 2.094,4.35 1.244,3.66 2.186,4.33 2.084,3.76 1.454,1.51 3.266,-0.23 3.29,-1.63 1.575,-4.27 2.495,-10.74 0.301,-10.29 -0.053,-22.66 -0.827,-8.95 -0.473,-38.12 -1.368,-24.98 0.457,-34.9 0.01,-43.81 2.236,-40.35 1.306,-15.45 0.072,-20.9 1.296,-15.2 -0.155,-8.6 -0.798,-6.82 0.166,-14.34 -1.838,-9.85 0.391,-5.07 3.906,-20.49 2.408,-3.25 3.103,-1.36 1.058,-0.16 2.981,0.41 2.847,-0.1 2.724,0.67 3.0242,-0.08 0.7022,0.36 0.9073,0.94 1.1761,4.01 0.2358,6.3 -0.8121,10.59 -0.8373,5.33 -3.4916,16.27 -0.0314,11.84 -0.2973,2.43 -0.7514,4.86 -3.0185,12.38 -3.061,22.51 -4.917,23.29 -3.281,30.4 -2.512,13.23 -1.464,13.56 0.525,46.79 -2.16,20.04 -0.07,23.48 -0.99,5.99 -0.41,8.41 0.169,26.02 2.038,18.08 0.59,2.19 1.901,4.5 0.417,6.76 1.106,5.87 2.355,5.81 4.819,2.18 1.694,0.31 3.57,-0.42 4.6954,-2.25 1.3462,-1.35 0.729,-1.25 4.1735,-13.73 0.7131,-15.1 -0.8937,-48.79 0.5485,-14.97 0.1384,-19.78 1.2019,-22.48 0.1358,-29.92 1.5673,-18.67 0.343,-19.36 1.5124,-10.77 0.4914,-6.57 0.0592,-16.43 1.2144,-12.07 0.2744,-6.45 -0.1126,-6.21 -1.1095,-9.52 0.7477,-17.09 -0.1135,-5.04 -0.6612,-3.88 0.2281,-8.16 -0.3633,-9.81 0.2848,-7.41 -2.3624,6.1 -2.1537,11.3 -1.2899,7.69 -1.8138,17.13 -7.7996,48.07 -12.1203,59.96 -5.905,56.27 -1.101,19.06 0.382,10.98 -0.441,-39.09 -0.026,-39.13 0.38,-23.32 0.173,-4.79 2.439,-16.13 1.201,-10.54 -0.045,-4.57 -0.357,-1.84 -1.653,3.62 -1.465,5.43 -0.98,5.79 -1.673,14.63 -4.776,76.1 -0.503,8.76 0.164,5.91 -0.269,0.51 -0.658,-13.02 -0.064,-15.74 0.922,-68.48 -0.047,-29.44 -1.008,-14.98 -0.707,-3.11 -0.29,-0.37 -0.519,0.27 0.119,0.95 -0.944,6.47 -1.386,15.17 -2.434,34.92 -1.681,39.69 -0.104,17.02 0.182,6.35 0.612,6.8 0.524,3.05 0.96,3.11 1.482,1.81 1.634,0.74 1.903,-0.35 1.173,-0.84 0.505,-0.81"
     id="path6159" />
</g>
<g
   id="g7313"
   transform="translate(-210.51868,-1382.6907)">
  <path
     fill="#000000"
     fill-rule="evenodd"
     d="m -96.5,1765 -43.5,-6.62 -2.75,-0.13 -0.5,1.5 -1.75,-0.12 -4,-1.13 -4.75,-1.75 -0.25,-1.25 1.5,-1.5 h 4 l 1,-1 1,1 43.5,5 -0.5,-1 -1.5,-0.5 -18.5,-7.5 -1.5,-1.5 v -2 l 3.5,-3.5 3.25,-1.25 -0.375,-2.75 -1.375,-2.5 -2.5,-3.5 -1.5,-2.5 -1.5,-1.5 h -2 l -2.5,-2.5 0.25,-2.25 6.75,0.25 3,-1 2.5,-0.5 3.5,-3.5 v -3 l -2.5,-2.5 -4,-2 -2.5,-2.5 0.625,-3.5 0.625,-2 v -5 l -0.5,-2 -0.75,-5.5 1.5,-1.5 1.5,1.5 -1,1 0.625,2.5 1.75,4 0.125,4 -0.5,2.5 -2,2 0.25,1.25 4.25,2.25 5.5,5.5 -1,7 -4.5,4.5 -1.5,0.38 -3.5,0.62 -0.5,0.5 2,2 4.375,8.5 0.625,3.5 -2.5,2.5 -4,1 -0.5,0.5 1.5,1.5 2.5,0.5 10,4 10,5 1.5,0.5 2.5,2.5 -1,1 v 1 l -1.5,1.5 m -5.5,-5 v -1 h -1 v 1 h 1"
     id="path7311" />
</g>
<g
   id="g7325"
   transform="translate(-210.51868,-1382.6907)">
  <path
     fill="#000000"
     fill-rule="evenodd"
     d="m -126,1655.5 -10,-0.25 -1.75,-0.5 v -2.5 l 3.75,-1.62 6.5,-1.63 0.5,-0.5 -1,-1 v -2 l 3.5,-3.5 3.25,-0.25 -0.75,-2.25 -1,-2 -2,-2 1,-6 4,-4 -2,-2 -1.5,-2.5 -1,-3 0.75,-1.75 1.5,-0.5 -0.375,-2.75 -2.625,-6 -0.75,-7.5 1.5,-1.5 1.5,1.5 -1,1 0.75,4.5 3.625,9 0.625,3.5 1,1 -2,2 3.375,6.5 0.375,2.75 -1.75,0.63 -3.75,0.87 -0.25,1.25 -1,1 1,1 1,2 3.5,5.5 0.5,1.5 1,1 -3,3 0.5,0.5 h 6 l 1.5,1.5 v 1 l 1,1 -1.5,1.5 -14.5,2.5 m 4.5,-6.5 0.5,-1 h -1.5 l -0.5,1 h 1.5"
     id="path7323" />
</g>
<g
   id="g7349"
   transform="translate(-210.51868,-1382.6907)">
  <path
     fill="#000000"
     fill-rule="evenodd"
     d="m -112,1482.38 -5.5,0.62 -2,-2 -1.25,-0.25 -0.625,-1.75 -0.625,-3.5 -4.5,-4.5 -1.5,-0.5 h -2 l -2,0.88 -2.5,0.62 -1.5,-1.5 v -2 l -0.5,-0.5 -2,2 -3.5,1.25 -10.5,-0.25 -2,-2 h -1 l -6,6 -1,-1 -3.375,-1.25 0.5,-6.75 2.625,-7.75 h 2.5 l -0.75,10.25 1.5,1.5 0.5,-0.5 v -1 l 1.5,-1.5 1.5,-0.5 h 2 l 2,0.75 7,1.38 3.5,0.37 2,-2 h 1 l 3,-3 h 2 l 4,4 1,-1 1.5,0.5 2,1 2,0.75 5.5,0.75 2,2 h 1 l 1.5,1.5 v 3 l 1.5,1.5 4.5,-0.75 4.5,-1.25 1,-1 1.5,1.5 -1.5,1.5 -1.5,0.5 -6,2.88 -3,1"
     id="path7347" />
</g>
<g
   id="g7353"
   transform="translate(-210.51868,-1382.6907)">
  <path
     fill="#000000"
     fill-rule="evenodd"
     d="m -140,1435.38 -6,-0.13 -1.75,-0.5 -2.5,-6.5 -1.25,-0.25 -1.5,1.5 -4,6 -3.5,3.5 h -3 l -1.5,-1.5 -0.875,-7.25 3.375,-1.25 1.5,1.5 v 1 l 1.5,1.5 h 1 l 1.5,-1.5 3.25,-5.25 1.75,-0.62 h 4 l 1.5,0.37 3.5,3.5 v 1 l 2.5,2.5 1.5,-0.5 7,-4 2,-0.75 h 9 l 1.5,0.25 3,3 2.5,-0.62 2,-0.88 5,-2.87 4,-1.13 5,0.13 3,1 4.75,2.62 v 1.5 l -1.75,0.75 h -2 l -1.5,-0.5 -3,-3 -6.5,0.75 -2,0.75 -2,1 -1.5,0.5 -2,2 -8,1 -5,-5 -5,1 -2,2 -3,1 -2,2 -2.5,0.38"
     id="path7351" />
</g>
<g
   id="g7365"
   transform="translate(-210.51868,-1382.6907)">
  <path
     fill="#000000"
     fill-rule="evenodd"
     d="m -65,1789.38 -4,0.12 -18,0.13 -6,1.62 -25,4 h -12 l -9,-1.75 -34,-0.75 -11.5,-2.75 -2,2 -3,-3 h -1 l -1,1 -1.5,-1.5 1.5,-1.5 2.5,-0.25 -0.25,-388.5 -3.5,-0.5 v -1.62 l 18.75,-2.38 60,-1 9,1.5 29,0.5 6,1.63 6,0.12 4,-1 4.75,-0.37 v 1.75 l -4.75,0.62 -4,1 -6,-0.12 -6,-1.63 -29,-0.37 -9,-1.63 -72.875,2.38 0.875,389.62 3,0.88 2,0.75 3,0.75 34,1.62 15,2.63 h 10 l 21,-4.13 4,0.38 3,-1.13 3,-0.75 14,-0.5 4.5,-1.25 1,1 0.5,-0.5 1.75,-370.5 0.75,-6 2.75,-9.75 h 1.5 l -0.125,2.75 -2.125,10 -1.25,372.75 1.5,0.5 v 2.5 l -1.75,0.63"
     id="path7363" />
</g>
</svg>
