<?xml version="1.0" encoding="UTF-8" standalone="no"?>
<svg
   width="118.4165"
   height="414.34131"
   viewBox="-411 0 118.4165 414.34131"
   version="1.2"
   id="svg7379"
   sodipodi:docname="Ideer - page 2.svg"
   xmlns:inkscape="http://www.inkscape.org/namespaces/inkscape"
   xmlns:sodipodi="http://sodipodi.sourceforge.net/DTD/sodipodi-0.dtd"
   xmlns="http://www.w3.org/2000/svg"
   xmlns:svg="http://www.w3.org/2000/svg"><defs
   id="defs7383" />
<sodipodi:namedview
   id="namedview7381"
   pagecolor="#ffffff"
   bordercolor="#000000"
   borderopacity="0.25"
   inkscape:showpageshadow="2"
   inkscape:pageopacity="0.0"
   inkscape:pagecheckerboard="0"
   inkscape:deskcolor="#d1d1d1"
   showgrid="false" />
<title
   id="title4803">Ideer</title>
\n<g
   id="g6165"
   transform="translate(-457.01978,-1386.025)">
  <path
     fill="none"
     stroke="#f29eff"
     stroke-width="30"
     stroke-linecap="butt"
     stroke-linejoin="bevel"
     opacity="0.500008"
     d="m 63.1833,1401.17 -0.7768,1.67 -1.1948,5.33 -0.2113,3.5 0.2784,5.47 1.204,8.26 0.8454,13.26 0.0187,8.31 -0.9964,19.67 0.1265,5.92 1.1323,12.17 0.6361,18.63 0.0664,15.2 -0.4755,11.93 0.2601,48.67 0.5307,27.93 -0.1935,16.17 0.5388,7.53 1.1475,9.32 0.4533,7.62 -0.0089,21.85 0.2574,3.7 3.9268,22.78 0.7419,5.91 0.6193,12.73 -0.3645,3.91 0.3804,9.82 -0.3529,6.63 0.0913,9.36 0.1543,1.23 2.1299,5.75 0.5185,3.87 1.9023,3.84 2.0662,6.87 2.6989,6.46 2.892,3.13 4.957,4.48 2.3507,1.41 1.3606,1.38 2.9716,1.54 2.9993,1.02 1.9377,-0.13 1.254,-0.69 2.056,-0.56 4.759,0.3 9.41,-3.67 5.285,-0.36 7.594,-4.27 1.946,-1.98 4.659,-10.03 0.776,-2.51 0.515,-8.41 0.787,-2.94 0.243,-2.48 0.219,-7.7 -0.571,-9.67 -0.223,-22.65 -0.305,-5.95 -0.875,-5.89 -0.162,-4.94 0.521,-28.06 -1.054,-6.38 0.296,-16.19 -0.367,-6.2 -1.65,-13.06 -0.205,-6.6 0.233,-14.99 -0.608,-9.71 0.853,-17.84 0.245,-13.66 0.735,-6.05 0.13,-3.91 -0.043,-4.62 -0.592,-5.1 -0.029,-5.46 1.207,-16.69 0.127,-18.54 1.432,-12.33 0.137,-10.49 -0.282,-10.65 1.274,-13.81 -0.102,-4.15 -0.62,-3.11 -0.033,-2.22 0.338,-5.35 1.229,-6.53 -0.066,-1.52 -0.335,-0.34 -0.247,-1.63 -0.012,-2.3 2.34,-7.85 -0.221,0.12 -0.205,-0.3 -0.475,-2.34 -1.118,-2.18 -0.873,-1.09 -1.361,-0.82 -1.638,-1.68 -3.963,-1.96 -4.737,-1.36 -5.119,-0.24 -11.937,-2.24 -5.152,-0.42 -12.3267,0.32 -4.7995,0.67 -5.6696,-0.47 -2.3595,0.31 -5.8443,1.61 0.338,-0.09 -0.3598,6.78 0.9955,14.5 -0.3175,26.67 -1.1413,20.03 -3.0339,40.49 -0.5223,13.16 1.6728,20.94 4.4875,43.8 1.1279,6.01 2.5176,8.8 1.1179,5.46 -0.003,-1.73 -1.7666,-6.15 -0.8154,-4.73 -1.4948,-16.6 -0.1368,-15.01 1.3178,-31.84 0.9796,-7.64 3.2505,-16.63 2.3929,-14.17 1.7018,-15.43 4.5704,-50.33 0.3655,-0.53 -0.1218,2.93 -3.1824,11.43 -2.1771,12.63 -1.2862,10.27 -1.888,31.31 -0.4209,10.85 0.3807,6.43 0.2694,-0.15 1.8357,-9.9 2.8681,-18.16 9.3121,-64.37 0.4498,-5.95 -0.7962,4.68 -0.776,9.96 -0.2037,17.47 0.2339,7.72 0.3538,1.59 0.4374,-0.32 0.552,-1.27 1.3063,-4.04 1.7014,-9.8 0.767,-11.28 0.402,-12.57 -0.988,-5.15 0.618,7.05 0.046,14.19 0.379,6.99 1.181,5.97 -0.094,-0.42 5.741,-14.77 4.755,-10.79 0.573,-0.28 0.364,0.56 0.568,3.42 -0.147,8 -1.04,15.92 -6.5,71.08 0.274,8.91 1.532,11.67 -0.168,4.39 -0.422,1.92 1.294,-15.66 1.538,-28.47 2.08,-22.43 2.18,-14.38 0.962,-3.45 0.281,-0.43 0.43,0.17 -1.698,9.46 -2.658,21.92 -4.361,45.65 -3.619,33.94 -2.668,30.93 -2.004,38.12 0.256,9.77 0.416,3.16 0.765,1.47 -3.0682,-19.13 -3.2191,-11.16 -1.7132,-11.75 -0.2893,-4.87 0.1911,-10.17 0.8881,-10.67 1.5887,-10.05 0.4101,-0.92 0.1777,-0.14 -0.039,0.5 -1.5538,6.96 -2.0865,13.97 -2.0359,21.63 -0.3625,8.06 -0.0947,9.26 0.498,13.59 1.1804,11.24 0.5803,12.16 0.2962,-12.27 -0.3187,-1.5 -0.2116,0.57 -1.0874,5.74 -1.9135,16.81 -1.6008,8.01 -0.6649,6.73 -0.677,2.43 -1.7308,2.68 -0.5782,1.49 -0.6477,5.44 -0.6505,2.42 -2.761,4.93 -1.171,7.2 -2.3488,4.11 -0.6305,1.99 -0.8997,7.88 -1.1008,4.4 -0.8912,2.14 -0.7619,4.31 -0.5574,7.72 -0.7555,1.51 -0.4908,5.58 -1.1495,2.3 -1.2806,7.35 0.1654,-0.31 0.4223,0.5 0.0858,1.14 0.9521,1.96 7.9878,4.09 2.2134,0.03 10.1449,-3.49 10.9537,-1.76 4.613,-1.26 4.61,-1.7 2.839,0.06 1.548,-0.94 1.993,-3.33 1.329,-0.89 3.982,-0.25 1.042,0.41 2.283,-0.14 3.03,1.73 1.86,0.55 1.602,1.11 1.427,0.22 1.439,0.8 2.608,5.97 1.274,6.83 0.267,-0.45 2.648,-1.2 0.995,-1.35 2.962,-5.83 1.606,-5.06 0.895,-1.73 0.792,-7.9 0.048,-4.91 -0.477,-1.87 -1.678,-3.55 -0.795,-4.09 -2.016,-28.98 -2.078,-18.94 -1.89,-9.17 -5.261,-18.23 -1.71,-14.72 -0.29,-10.27 0.307,-17.94 1.739,-40.66 -0.446,-6.91 -0.704,-1.84 -1.396,-1.6 -1.354,6.26 -1.162,11.48 -3.356,45.01 -0.131,24.06 -0.525,14.25 -1.295,12.28 -2.104,12.64 -2.972,13.62 -1.408,4.38 0.486,-2.73 -0.781,-29.52 1.519,-27.9 -0.089,-0.57 -1.357,-1.1 -2.086,-0.7 -1.825,-0.01 -0.666,2.87 -0.863,6.74 -5.249,52.89 -6.552,43.74 -0.86,1.99 1.198,-8.92 0.617,-10.72 -0.405,-48.88 -0.167,3.61 -1.4633,11.9 -2.276,14.97 -1.903,19.65 0.0131,3.17 0.226,1.57 0.4322,0.74 0.6615,0.14 1.2192,-1.08 1.7175,-2.95 1.7878,-5.13 2.787,-14.9 3.506,-23.59 1.046,-4.68 0.268,0.77 -0.4,17.19 0.407,22.76 0.467,4.99 0.846,3.57 0.64,0.53 1.246,-1.48 1.086,-3.39 1.111,-6.82 3.94,-36.41 0.808,-4.27 0.335,0.89 -1.819,16.15 -0.642,12.22 0.466,26.17 1.208,-8.6 0.658,-7.61 1.129,-37.18 0.681,-8.59 0.56,-2.79 0.302,-0.15 0.071,0.75 -1.191,6.73 -0.595,10.47 -0.913,33.54 0.016,-1.69 2.032,-12.23 2.258,-17.63 2.774,-35.94 0.62,-12.92 0.449,-4.56 0.505,-1.05 -0.151,18.72 1.085,26.39 0.24,13.52 -0.261,25.91 0.893,-4.58 1.039,-13.41 1.221,-27.18 -0.05,-12.8 -0.235,-0.3 0.114,7.38 0.94,20.54 0.091,10.46 -0.603,20.21 -1.067,15.71 0.015,3.43 0.338,0.05 0.434,-1.88 4.3,-25.12 0.724,-1.94 0.282,0.12 0.397,3.23 2.73,9.93 1.73,13.92 0.25,5.62 2.251,-17.11 1.736,-8.83 0.647,-1.98 0.544,-0.68 -1.384,14.32 0.425,9.75 0.513,-3.64 -0.006,-8.26 -0.993,-11.53 -1.075,-7.12 -0.407,-0.57 -0.046,0.29 1.284,13.61 0.313,10.1 -0.082,-4.86 0.892,-4.85 0.82,-1.62 0.084,-1.91 -1.165,-4.09 -1.486,-3.1 -2.496,-0.41 -2.797,-1.13 -1.5,0.01 -1.654,0.75 -1.889,0.24 -1.869,-0.91 -1.141,-1.29 -1.486,-3.39 -1.819,-7.23 -3.821,-25.32 -4.432,-39.33 -2.741,-36.92 0.224,-5.05 3.023,-20.44 0.865,-12.35 -0.53,-9.35 -2.633,-21.49 -0.503,-0.39 -1.559,-0.25 -0.915,0.22 -0.72,0.66 -0.91,2.13 -0.998,5.63 -0.601,13.93 0.218,19.25 0.608,14.5 0.676,5.76 0.645,2.37 0.223,0.29 0.407,-0.28 0.439,-4.4 0.786,-14.47 1.075,-54.12 4.152,-37.75 0.96,-20.02 -0.245,-3.3 -2.6,12.99 -2.487,19.08 -2.2,21.16 -2.985,34.89 -1.063,16.57 -0.892,23.46 -0.041,10.41 0.44,11.54 0.398,1.04 0.409,-0.6 0.848,-4.88 0.636,-5.14 0.438,-7.57 1.775,-91.73 1.032,-29.18 0.41,-5.42 0.474,-2.28 0.697,0.97 0.145,1.37 -2.231,8.76 -2.633,16.07 -3.821,38.08 -1.992,26.78 -1.71,29.18 -1.05,29.52 0.513,32.6 1.445,15.92 1.388,8.88 1.76,7.39 2.194,6.11 2.369,4.27"
     id="path6163" />
</g>
<g
   id="g7305"
   transform="translate(-457.01978,-1386.025)">
  <path
     fill="#000000"
     fill-rule="evenodd"
     d="m 111.5,1767 h -2 l -1.5,-1.5 v -3.5 l -1,0.5 -1.25,4.25 h -3.5 l -1.25,-4.25 -1.5,-1.5 -6,6 h -2 l -1.5,-1.5 v -3 l -0.5,-0.5 -1.5,1.5 v 1 l -1.5,1.5 -4.375,1.25 -1.125,7.25 -1.5,1.5 h -1 l -1.5,-1.5 0.5,-3.5 -0.25,-6 0.25,-2 0.5,-1.5 0.5,-0.5 1,1 1.375,-0.25 0.125,-4.25 1.5,-1.5 1.375,0.25 -0.625,7.5 1.25,0.25 2.5,-2.5 v -1 l 2.5,-2.5 h 3 l 1.5,1.5 v 3 l 0.5,0.5 2.5,-2.5 0.25,-1.25 1.75,-0.62 3.5,-0.63 1.5,1.5 0.25,1.25 h 1.5 l 0.25,-1.25 1.5,-1.5 h 1 l 1,-1 1,1 4,1 1,1 1,-1 h 4 l 1,-1 1,1 5,-1 0.5,0.5 -1,1 v 1 l -1.5,1.5 -2.5,-0.37 h -5 l -2.5,0.37 -2.5,2.5 v 1 l -1.5,1.5"
     id="path7303" />
</g>
<g
   id="g7321"
   transform="translate(-457.01978,-1386.025)">
  <path
     fill="#000000"
     fill-rule="evenodd"
     d="M 137.875,1735.88 131.5,1735 118,1721.5 l -0.25,-1.25 -1.75,0.13 -2.5,0.62 -2,-2 h -1 l -3.5,-3.5 -13,-16 -2.5,-3.5 -1,-2 -0.75,-2 v -9 l 0.875,-3 2.375,-4.5 1.5,-1.5 1.5,-0.25 h 6 l 1.5,0.25 3,3 0.5,-0.5 v -4 l 1.5,-1.5 h 1 l 2,2 0.5,-0.5 -0.5,-1.5 -2.5,-4.5 -1.5,-1.5 h -1 l -2.5,-2.5 0.5,-0.5 1.25,-0.25 0.5,-1.62 9.25,-1.13 1.5,-1.5 -1,-1 -0.5,-1.5 -13,-23 -0.875,-2 -1.25,-4 0.125,-2 0.75,-1.87 7.25,0.87 1,1 1.5,-1.5 -0.625,-3.5 -3.75,-8 -0.625,-2.5 2.5,-2.5 8,-1 1.5,-1.5 -5.5,-5.5 -2,-1 -2.5,-0.62 -2.5,0.62 -1.5,-1.5 v -2 l 1.5,-1.5 2.5,-0.62 1.75,-0.13 0.25,2.25 1.5,1.5 5,3 2.5,2.5 v 1 l 2,2 v 5 l -2.5,2.5 -8,1 -0.5,0.5 1,1 0.5,1.5 0.875,2 0.875,3 v 8 l -0.5,1.75 -1.75,0.75 h -2 l -2,-1 -1.5,-0.5 -1,-1 -0.5,0.5 0.5,1.5 14.875,27 v 4 l -0.625,1.75 -1.75,0.5 -4.5,0.75 -1.5,1.5 1,1 v 1 l 2,2 0.5,14.5 1.25,5 1.75,3 11,17 7.875,18 1,3 0.5,5.88 m -21,-22.13 -0.375,-5.75 -3.125,-16 -0.875,-2 -2,-3 -3,-4 -1.5,-2.5 -5.5,-5.5 h -3 l -3.5,3.5 -0.5,1.5 -0.875,2 -1,3 v 5 l 0.375,2.5 1,0.5 v -1.5 l 1.5,-1.5 1.5,1.5 1.5,2.5 11.5,13.5 6.5,6.5 1.375,-0.25 M 108,1679 v -1 h -1 v 1 h 1 m -14,15 v -1 h -1 v 1 h 1 m 1,1 v -1 h -1 v 1 h 1 m 1,2 v -1 h -1 v 1 h 1 m 1,1 v -1 h -1 v 1 h 1 m 1,1 v -1 h -1 v 1 h 1 m 1,1 v -1 h -1 v 1 h 1 m 3,4 v -1 h -1 v 1 h 1 m 1,1 v -1 h -1 v 1 h 1 m 1,1 v -1 h -1 v 1 h 1 m 1,1 v -1 h -1 v 1 h 1 m 1,1 v -1 h -1 v 1 h 1 m 4,-32 v -1.5 l -1,-0.5 v 1 l 1,1 m 1,2 v -1 h -1 v 1 h 1 m 7,20 v -1.5 l -1,-0.5 v 1 l 1,1 m 16.75,32.75 -0.125,-1.75 -10.125,-22 -3.5,-5.5 -1,-2 -1.5,-1.5 -0.5,0.5 1,19 10.5,10.5 5.25,2.75"
     id="path7319" />
</g>
<g
   id="g7337"
   transform="translate(-457.01978,-1386.025)">
  <path
     fill="#000000"
     fill-rule="evenodd"
     d="m 115.5,1554 -2.5,-0.5 -10,-4 -6,-3 -1.5,-0.5 -1.5,-1.5 0.25,-2.25 2.75,0.13 13.5,3.62 0.5,-0.5 -2.5,-2.5 h -1 l -0.5,-0.5 1,-1 0.25,-2.25 2.5,-0.5 0.625,-1.75 0.625,-3.5 -3,-3 -0.5,-1.5 -4,-7 -0.5,-1.5 2.5,-2.5 4.25,-0.12 0.25,-2.38 -4,-4 -1,-11 -1,-1 1,-1 -0.625,-5.5 -2.375,-7.5 -2,-2 -0.375,-1.5 -0.625,-3.5 1.5,-1.5 1.5,-0.5 2,-0.87 2.75,-0.38 0.25,2.25 -3.5,3.5 h -1 l -0.5,0.5 1,1 0.5,1.5 1.875,4 0.875,3 2.75,17.5 -1,1 4,4 0.25,1.5 v 5 l -0.25,1.5 -1.5,1.5 -2.25,0.25 0.375,2.75 1.375,2.5 2,3 1,2 1,1 -1,1 -0.5,3.5 -1.125,3 0.625,2.5 2,3 1.375,2.5 0.625,2.5 -1.5,1.5"
     id="path7335" />
</g>
<g
   id="g7345"
   transform="translate(-457.01978,-1386.025)">
  <path
     fill="#000000"
     fill-rule="evenodd"
     d="m 149.75,1787.75 h -2.5 l -0.25,-2.25 -1.5,-1.5 -51.5,1.5 -10,2.13 -10.5,-0.63 -1,-1 -1,1 -7,1 -1.5,-1.5 1,-1 -2.25,-382.5 0.5,-2.75 h 1.5 l 0.25,2.25 1.5,1.5 1.5,-0.25 5,-0.12 3,0.62 65.5,-2.25 1,-1 0.5,0.5 v 1 l -1.5,1.5 -65.5,2.25 -3,-0.62 h -5 l -2.875,0.62 4.125,370.75 -0.75,4 -0.25,3.75 19.75,-0.37 4,-0.63 23,-0.25 7,-1.12 h 14 l 10.875,-1.5 5.625,-66.88 -1.75,-14 -2.25,-33 -3,-16 0.5,-247.5 -1,-1 1,-1 0.25,-3.25 h 1.625 l 0.75,252.75 2.875,15 4,55 -5.375,59.75 1.875,-0.25 2,-0.87 3.75,-0.38 v 1.5 l -1.75,0.75 -2,1 -1.5,0.5 -1.5,1.5 -0.25,3.25"
     id="path7343" />
</g>
</svg>
