<?xml version="1.0" encoding="UTF-8" standalone="no"?>
<svg
   width="108.03603"
   height="350.17883"
   viewBox="-411 0 108.03603 350.17883"
   version="1.2"
   id="svg7379"
   sodipodi:docname="Ideer - page 2.svg"
   xmlns:inkscape="http://www.inkscape.org/namespaces/inkscape"
   xmlns:sodipodi="http://sodipodi.sourceforge.net/DTD/sodipodi-0.dtd"
   xmlns="http://www.w3.org/2000/svg"
   xmlns:svg="http://www.w3.org/2000/svg"><defs
   id="defs7383" />
<sodipodi:namedview
   id="namedview7381"
   pagecolor="#ffffff"
   bordercolor="#000000"
   borderopacity="0.25"
   inkscape:showpageshadow="2"
   inkscape:pageopacity="0.0"
   inkscape:pagecheckerboard="0"
   inkscape:deskcolor="#d1d1d1"
   showgrid="false" />
<title
   id="title4803">Ideer</title>
\n<g
   id="g6181"
   transform="translate(-38.387257,-1900.7911)">
  <path
     fill="none"
     stroke="#ffed75"
     stroke-width="30"
     stroke-linecap="butt"
     stroke-linejoin="bevel"
     opacity="0.500008"
     d="m -352.838,1914.07 -0.571,0.3 -0.996,3.56 -0.351,4.63 0.293,5.54 -0.133,6.33 0.717,11.19 -0.135,4.26 0.702,5.52 0.366,6.64 -0.075,6.03 0.823,5.41 0.046,5.96 0.938,10.55 -0.626,11.59 0.305,22.42 -0.862,6.95 0.146,24.28 -0.55,8.9 0.636,8.99 -0.12,5.76 -1.038,13.7 0.219,14.52 -0.782,15.33 0.061,12.27 -0.685,10.3 -1.249,6.92 -0.223,4.48 -0.443,1.89 -0.952,14.98 0.004,11.18 -0.29,1.96 0.723,8.81 0.638,2.93 0.531,10.88 -0.021,3.24 -0.591,2.28 -0.007,7.35 -0.525,5.29 0.316,7.55 1.386,0.75 2.273,0.48 17.402,-0.03 4.513,-0.54 10.449,0.05 2.322,-0.58 4.617,0.11 3.339,-1.06 h 3.171 l 3.673,-1.35 5.592,0.09 6.821,-1.53 3.456,0.08 2.544,-0.3 2.29,-1.16 2.018,-4.69 0.141,-7.54 0.434,-4.41 -0.041,-8.43 0.412,-10.64 -0.57,-13.84 0.046,-16.43 -0.299,-4.87 -0.614,-3.38 0.197,-20.39 -1.108,-7.18 -0.081,-16.07 -2.242,-15.8 0.481,-22.65 -1.44,-9.71 0.318,-15.77 -0.466,-17.98 0.783,-7.13 -0.487,-13.39 0.283,-11.87 1.097,-9.5 0.026,-9.4 1.031,-8.2 -0.041,-7.75 0.842,-8.23 0.708,-3.35 0.395,-12.55 0.817,-5.98 0.548,-12.8 -0.783,-0.83 -3.602,-1.79 -2.77,0.03 -3.951,-0.98 -11.009,-0.3 -7.695,0.05 -6.59,0.55 -13.666,-0.07 -2.986,0.81 -5.235,0.18 -1.12,0.4 -3.013,0.18 -2.985,0.65 0.303,3.74 1.755,4.73 3.124,11.04 2.326,6.26 1.613,10.75 0.124,4.64 -1.063,23.75 -3.321,32.04 -0.37,7.68 0.136,7.61 1.744,23.37 -0.698,30.47 0.121,11.98 0.281,4.16 2.596,18.4 0.03,11.67 -1.167,13.94 0.138,9.64 -0.609,8.48 -2.064,8.94 -0.989,6.16 -0.437,18.01 0.361,1.97 2.13,5.51 1.004,4.03 1.912,3.6 7.122,7.38 5.061,0.64 2.025,0.59 4.068,0.29 4.066,-1.55 0.761,-0.95 4.593,-7.8 3.207,-7.51 3.905,-28.88 0.644,-11.09 0.215,-54.22 -0.298,-12.09 0.059,-20.91 -1.528,-38.76 -0.131,-10.32 0.225,-15.57 1.089,-11.61 0.219,-6.65 -0.493,-18.08 1.625,-15.07 -0.14,-4.06 -0.403,-2.21 0.276,-13.89 -1.35,-8.58 -5.769,-2.49 -1.577,-0.04 -7.375,3.37 -2.711,2.22 -2.083,4.59 -1.176,4.93 -0.835,5.83 -0.516,10.4 0.412,58.25 -0.238,18.28 1.349,22.98 0.616,24.67 -0.596,18.22 -1.33,19.57 -0.17,8.46 -1.263,16.88 -0.166,9.39 0.239,4.74 1.511,6.93 0.458,4.9 -0.541,10.51 0.168,8 0.728,7.58 -0.341,5.89 0.107,5.64 0.758,2.11 1.08,0.49 1.494,-0.02"
     id="path6179" />
</g>
<g
   id="g7285"
   transform="translate(-38.387257,-1900.7911)">
  <path
     fill="#000000"
     fill-rule="evenodd"
     d="m -296.5,2146 -3,-1 -2,-2 -2.25,-0.25 -0.25,-1.25 1.5,-1.5 1,1 1.25,-0.25 1.375,-3.75 0.25,-11 -0.875,-6 -0.5,-21.5 1.5,-1.5 1.375,0.25 0.125,4.25 -1,1 1,1 -0.625,14.5 2.125,16 -0.25,6 -0.25,1.5 2,2 -2.5,2.5"
     id="path7283" />
</g>
<g
   id="g7289"
   transform="translate(-38.387257,-1900.7911)">
  <path
     fill="#000000"
     fill-rule="evenodd"
     d="m -336,2154.5 -5.5,0.5 -1.5,-1.5 v -1 l 1.5,-1.5 1.5,-0.37 3,-1.13 2.75,-0.75 0.25,-1.25 -4.5,-4.5 h -1 l -1.5,-1.5 v -4 l 2.5,-2.5 6.5,-3.5 1.5,-0.5 1.5,-1.5 -1,-1 v -1 l -7,-7 0.75,-4.5 0.5,-1.75 1.5,-0.5 0.25,-1.25 1,-1 -1,-1 -1,-8 -3,-3 v -1 l -1,-1 1,-1 v -6 l 1,-1 -1,-1 -0.5,-1.5 -2.875,-6 -1.625,-6.5 -1,-1 1.5,-1.5 1.5,1.5 1.625,5.5 2.75,6 1,3 -0.125,5 -0.25,1.5 1,1 -1,1 2.25,4.5 2,8 0.75,8.5 -1.5,1.5 h -1 l -0.5,0.5 1,1 v 1 l 6,6 1,6 -3.5,3.5 -1.5,0.5 -5,2.13 -1.5,0.37 -0.5,0.5 6,6 1,6 -1.5,1.5 -3.5,0.5"
     id="path7287" />
</g>
<g
   id="g7293"
   transform="translate(-38.387257,-1900.7911)">
  <path
     fill="#000000"
     fill-rule="evenodd"
     d="m -308,1990.75 -3.5,-0.75 -2,-2 h -3 l -3,-3 -12,-10 -3.5,-3.5 v -3 l -2,-2 -1,-5 1.5,-1.5 1,1 h 2 l 2,-2 1.25,-0.25 0.5,-2.5 8.75,-3.75 5,-2.87 3,-1 4.75,-0.5 v 2.62 l -1.25,0.25 -1.5,1.5 v 11.5 l 1,-0.5 v -4 l 1.5,-1.5 1.5,1.5 -1,31.25 m -3.25,-5 0.5,-2.75 0.125,-8 -3.625,-20.75 -1.75,0.25 -2,0.88 -4,1.25 -2,0.87 -2.5,1.5 -6.5,4.5 -1.75,0.75 -0.25,1.25 18.5,18.5 1.5,0.5 2,1 1.75,0.25"
     id="path7291" />
</g>
<g
   id="g7297"
   transform="translate(-38.387257,-1900.7911)">
  <path
     fill="#000000"
     fill-rule="evenodd"
     d="m -339,1910.38 -20.75,1.37 v -1.5 l 1.75,-0.37 85.5,-4.88 1,-1 1.5,1.5 -1.5,1.5 -67.5,3.38"
     id="path7295" />
</g>
<g
   id="g7369"
   transform="translate(-38.387257,-1900.7911)">
  <path
     fill="#000000"
     fill-rule="evenodd"
     d="m -337.5,2218 -2,-1 -2.5,-2.5 v -1 l -3,-3 0.25,-2.25 1.25,-0.25 1.5,1.5 v 1 l 1.5,1.5 h 3 l 1.5,-1.5 1.25,-3.25 1.25,-0.25 1,-1 1,1 h 1 l 1,1 1,-1 10.5,-1.62 h 4 l 16,2.25 5.75,-0.38 0.5,2.5 1.625,0.5 v 4.5 l -1.875,0.63 -3,0.25 -24.5,-3.63 -1,1 -2,-2 h -1 l -2,2 -1,-1 -2,2 h -1 l -2,-2 -1,1 h -1 l -1,-1 -0.5,0.5 v 3 l -2.5,2.5"
     id="path7367" />
</g>
<g
   id="g7373"
   transform="translate(-38.387257,-1900.7911)">
  <path
     fill="#000000"
     fill-rule="evenodd"
     d="m -272.5,2232 -6.25,0.13 -0.25,2.37 -1.5,1.5 -0.5,-0.5 -0.25,-3.25 -3.75,-0.5 -14,-0.12 -52,4.87 -10,2.13 -4.5,1.37 -2,2 -1.5,-1.5 2.5,-2.5 22.5,-4.5 63,-3.75 7,-316.25 1.5,-1.5 1.25,0.25 0.5,1.75 -8.125,315.88 5.375,0.12 1.5,1.5 -0.5,0.5"
     id="path7371" />
</g>
<g
   id="g7377"
   transform="translate(-38.387257,-1900.7911)">
  <path
     fill="#000000"
     fill-rule="evenodd"
     d="m -363,2235.75 -1.5,0.25 -1.5,-1.5 4,-317 -1,-1 1,-1 v -1 l 1.5,-1.5 h 1 l 1.5,1.5 -5,321.25"
     id="path7375" />
</g>
</svg>
